<svg xmlns="http://www.w3.org/2000/svg" xmlns:xlink="http://www.w3.org/1999/xlink" version="1.1" class="marks" width="150" height="100" viewBox="0 0 150 100"><g fill="none" stroke-miterlimit="10" transform="translate(5,5)"><g class="mark-group role-frame root" role="graphics-object" aria-roledescription="group mark container"><g transform="translate(0,0)"><path class="background" aria-hidden="true" d="M0,0h140v90h-140Z"/><g><g class="mark-rect role-mark marks" role="graphics-object" aria-roledescription="rect mark container"><path aria-label="x: 1; y: A; v: 30" role="graphics-symbol" aria-roledescription="rect mark" d="M0,0h35v30h-35Z" fill="rgb(253, 220, 175)"/><path aria-label="x: 2; y: A; v: 50" role="graphics-symbol" aria-roledescription="rect mark" d="M35,0h35v30h-35Z" fill="rgb(251, 149, 98)"/><path aria-label="x: 3; y: A; v: 40" role="graphics-symbol" aria-roledescription="rect mark" d="M70,0h35v30h-35Z" fill="rgb(253, 193, 138)"/><path aria-label="x: 4; y: A; v: 70" role="graphics-symbol" aria-roledescription="rect mark" d="M105,0h35v30h-35Z" fill="rgb(211, 45, 30)"/><path aria-label="x: 1; y: B; v: 60" role="graphics-symbol" aria-roledescription="rect mark" d="M0,30h35v30h-35Z" fill="rgb(238, 101, 69)"/><path aria-label="x: 2; y: B; v: 30" role="graphics-symbol" aria-roledescription="rect mark" d="M35,30h35v30h-35Z" fill="rgb(253, 220, 175)"/><path aria-label="x: 3; y: B; v: 80" role="graphics-symbol" aria-roledescription="rect mark" d="M70,30h35v30h-35Z" fill="rgb(167, 4, 3)"/><path aria-label="x: 4; y: B; v: 40" role="graphics-symbol" aria-roledescription="rect mark" d="M105,30h35v30h-35Z" fill="rgb(253, 193, 138)"/><path aria-label="x: 1; y: C; v: 40" role="graphics-symbol" aria-roledescription="rect mark" d="M0,60h35v30h-35Z" fill="rgb(253, 193, 138)"/><path aria-label="x: 2; y: C; v: 70" role="graphics-symbol" aria-roledescription="rect mark" d="M35,60h35v30h-35Z" fill="rgb(211, 45, 30)"/><path aria-label="x: 3; y: C; v: 50" role="graphics-symbol" aria-roledescription="rect mark" d="M70,60h35v30h-35Z" fill="rgb(251, 149, 98)"/><path aria-label="x: 4; y: C; v: 60" role="graphics-symbol" aria-roledescription="rect mark" d="M105,60h35v30h-35Z" fill="rgb(238, 101, 69)"/></g></g><path class="foreground" aria-hidden="true" d="" display="none"/></g></g></g></svg>